<svg width="16" height="16" viewBox="0 0 16 16" fill="none" xmlns="http://www.w3.org/2000/svg">
<path d="M9.77571 10.6242L12.3514 13.2H10.2C9.8686 13.2 9.59998 13.4686 9.59998 13.8C9.59998 14.1313 9.8686 14.4 10.2 14.4H13.8C13.9535 14.4 14.1071 14.3414 14.2242 14.2242C14.2818 14.1667 14.3252 14.1004 14.3544 14.0296C14.3838 13.9589 14.4 13.8813 14.4 13.8V10.2C14.4 9.8686 14.1313 9.59998 13.8 9.59998C13.4686 9.59998 13.2 9.8686 13.2 10.2V12.3514L10.6242 9.77571C10.3899 9.5414 10.01 9.5414 9.77571 9.77571C9.5414 10.01 9.5414 10.3899 9.77571 10.6242Z" fill="white"/>
<path d="M2.79998 3.6485L5.37571 6.22424C5.61003 6.45855 5.98992 6.45855 6.22424 6.22424C6.45855 5.98992 6.45855 5.61003 6.22424 5.37571L3.6485 2.79998H5.79998C6.13135 2.79998 6.39998 2.53135 6.39998 2.19998C6.39998 1.8686 6.13135 1.59998 5.79998 1.59998H2.19998C1.8686 1.59998 1.59998 1.8686 1.59998 2.19998V5.79998C1.59998 6.13135 1.8686 6.39998 2.19998 6.39998C2.53135 6.39998 2.79998 6.13135 2.79998 5.79998V3.6485Z" fill="white"/>
</svg>
